<svg viewBox="0 0 945 350" width="945" height="350" xmlns="http://www.w3.org/2000/svg">
  <defs>
    <marker id="arrow" markerWidth="10" markerHeight="10" refX="8" refY="5" orient="auto">
      <path d="M0,0 L10,5 L0,10 z" fill="var(--color-border-strong)" />
    </marker>
  </defs>
  <rect x="338.6" y="68.0" width="316.6" height="156.0" rx="14" fill="var(--color-bg-sidebar)" stroke="var(--color-border-default)" stroke-width="1" stroke-dasharray="4 4" />
  <text x="354.6" y="90.0" font-size="11" fill="var(--color-text-tertiary)" font-weight="700" letter-spacing="0.08em">DocSign Platform</text>
  <g data-relationship-id="rel-admin-docsign" data-view-id="view-system-context" data-target-label="creates documents, monitors status, views analytics">
    <path d="M 298.6 132.8 L 330.4 132.8 Q 332.6 132.8 332.6 135.1 L 332.6 135.1 Q 332.6 137.3 334.9 137.3 L 366.6 137.3" stroke="var(--color-border-strong)" stroke-width="1.5" fill="none" marker-end="url(#arrow)" />
    <path d="M 298.6 132.8 L 330.4 132.8 Q 332.6 132.8 332.6 135.1 L 332.6 135.1 Q 332.6 137.3 334.9 137.3 L 366.6 137.3" stroke="transparent" stroke-width="14" fill="none" />
    <g class="edge-label" data-edge-label="true">
      <text x="315.6" y="134.3" text-anchor="middle" dominant-baseline="middle" font-size="11" fill="var(--color-text-tertiary)">creates documents, monitors</text>
      <text x="315.6" y="147.3" text-anchor="middle" dominant-baseline="middle" font-size="11" fill="var(--color-text-tertiary)">status, views analytics</text>
    </g>
  </g>
  <g data-relationship-id="rel-signer-docsign" data-view-id="view-system-context" data-target-label="enters OTP code, reviews and signs document">
    <path d="M 298.6 210.7 L 342.6 210.7 Q 352.6 210.7 352.6 200.7 L 352.6 195.5 Q 352.6 188.5 359.6 188.5 L 366.6 188.5" stroke="var(--color-border-strong)" stroke-width="1.5" fill="none" marker-end="url(#arrow)" />
    <path d="M 298.6 210.7 L 342.6 210.7 Q 352.6 210.7 352.6 200.7 L 352.6 195.5 Q 352.6 188.5 359.6 188.5 L 366.6 188.5" stroke="transparent" stroke-width="14" fill="none" />
    <g class="edge-label" data-edge-label="true">
      <text x="325.6" y="212.2" text-anchor="middle" dominant-baseline="middle" font-size="11" fill="var(--color-text-tertiary)">enters OTP code, reviews</text>
      <text x="325.6" y="225.2" text-anchor="middle" dominant-baseline="middle" font-size="11" fill="var(--color-text-tertiary)">and signs document</text>
    </g>
  </g>
  <g data-relationship-id="rel-docsign-email" data-view-id="view-system-context" data-target-label="sends OTP code and notification emails">
    <path d="M 627.3 136.5 L 648.8 136.5 Q 651.3 136.5 651.3 134.0 L 651.3 134.0 Q 651.3 131.6 653.8 131.6 L 695.3 131.6" stroke="var(--color-border-strong)" stroke-width="1.5" fill="none" marker-end="url(#arrow)" />
    <path d="M 627.3 136.5 L 648.8 136.5 Q 651.3 136.5 651.3 134.0 L 651.3 134.0 Q 651.3 131.6 653.8 131.6 L 695.3 131.6" stroke="transparent" stroke-width="14" fill="none" />
    <g class="edge-label" data-edge-label="true">
      <text x="673.3" y="133.1" text-anchor="middle" dominant-baseline="middle" font-size="11" fill="var(--color-text-tertiary)">sends OTP code and</text>
      <text x="673.3" y="146.1" text-anchor="middle" dominant-baseline="middle" font-size="11" fill="var(--color-text-tertiary)">notification emails</text>
    </g>
  </g>
  <g data-relationship-id="rel-docsign-customer" data-view-id="view-system-context" data-target-label="delivers webhook callbacks on signature events">
    <path d="M 627.3 192.1 L 661.3 192.1 Q 671.3 192.1 671.3 202.1 L 671.3 206.1 Q 671.3 216.1 681.3 216.1 L 695.3 216.1" stroke="var(--color-border-strong)" stroke-width="1.5" fill="none" marker-end="url(#arrow)" />
    <path d="M 627.3 192.1 L 661.3 192.1 Q 671.3 192.1 671.3 202.1 L 671.3 206.1 Q 671.3 216.1 681.3 216.1 L 695.3 216.1" stroke="transparent" stroke-width="14" fill="none" />
    <g class="edge-label" data-edge-label="true">
      <text x="649.3" y="193.6" text-anchor="middle" dominant-baseline="middle" font-size="11" fill="var(--color-text-tertiary)">delivers webhook callbacks</text>
      <text x="649.3" y="206.6" text-anchor="middle" dominant-baseline="middle" font-size="11" fill="var(--color-text-tertiary)">on signature events</text>
    </g>
  </g>
  <g class="diagram-node" data-element="sage" data-element-id="person-admin" data-view-id="view-system-context" data-target-label="Tenant Admin">
    <rect x="64.0" y="80.0" width="234.6" height="90.0" rx="12" fill="var(--color-element-sage-fill)" stroke="var(--color-element-sage)" stroke-width="2" />
    <path d="M 76.0 80.0 H 286.6 Q 298.6 80.0 298.6 92.0 V 99.0 H 64.0 V 92.0 Q 64.0 80.0 76.0 80.0 Z" data-node-header="true" fill="var(--color-element-sage)" fill-opacity="0.18" />
    <text x="181.3" y="90.2" text-anchor="middle" dominant-baseline="middle" font-size="9" font-weight="600" fill="var(--color-text-primary)">Person</text>
    <text x="181.3" y="132.0" text-anchor="middle" font-size="14" font-weight="600" fill="var(--color-text-primary)">Tenant Admin</text>
    <text x="181.3" y="150.0" text-anchor="middle" font-size="11" fill="var(--color-text-secondary)">A customer-organization use…</text>
  </g>
  <g class="diagram-node" data-element="sage" data-element-id="person-signer" data-view-id="view-system-context" data-target-label="Document Signer">
    <rect x="64.0" y="204.0" width="234.6" height="90.0" rx="12" fill="var(--color-element-sage-fill)" stroke="var(--color-element-sage)" stroke-width="2" />
    <path d="M 76.0 204.0 H 286.6 Q 298.6 204.0 298.6 216.0 V 223.0 H 64.0 V 216.0 Q 64.0 204.0 76.0 204.0 Z" data-node-header="true" fill="var(--color-element-sage)" fill-opacity="0.18" />
    <text x="181.3" y="214.2" text-anchor="middle" dominant-baseline="middle" font-size="9" font-weight="600" fill="var(--color-text-primary)">Person</text>
    <text x="181.3" y="256.0" text-anchor="middle" font-size="14" font-weight="600" fill="var(--color-text-primary)">Document Signer</text>
    <text x="181.3" y="274.0" text-anchor="middle" font-size="11" fill="var(--color-text-secondary)">An external party who recei…</text>
  </g>
  <g class="diagram-node" data-element="indigo" data-element-id="system-docsign" data-view-id="view-system-context" data-target-label="DocSign Platform">
    <rect x="366.6" y="96.0" width="260.6" height="100.0" rx="12" fill="var(--color-element-indigo-fill)" stroke="var(--color-element-indigo)" stroke-width="2" />
    <path d="M 378.6 96.0 H 615.3 Q 627.3 96.0 627.3 108.0 V 115.0 H 366.6 V 108.0 Q 366.6 96.0 378.6 96.0 Z" data-node-header="true" fill="var(--color-element-indigo)" fill-opacity="0.18" />
    <text x="497.0" y="106.2" text-anchor="middle" dominant-baseline="middle" font-size="9" font-weight="600" fill="var(--color-text-primary)">Software System</text>
    <text x="497.0" y="148.0" text-anchor="middle" font-size="14" font-weight="600" fill="var(--color-text-primary)">DocSign Platform</text>
    <text x="497.0" y="166.0" text-anchor="middle" font-size="11" fill="var(--color-text-secondary)">End-to-end document signing…</text>
  </g>
  <g class="diagram-node" data-element="ochre" data-element-id="ext-email-provider" data-view-id="view-system-context" data-target-label="Email Service">
    <rect x="695.3" y="80.0" width="180.0" height="90.0" rx="12" fill="var(--color-element-ochre-fill)" stroke="var(--color-element-ochre)" stroke-width="2" />
    <path d="M 707.3 80.0 H 863.3 Q 875.3 80.0 875.3 92.0 V 99.0 H 695.3 V 92.0 Q 695.3 80.0 707.3 80.0 Z" data-node-header="true" fill="var(--color-element-ochre)" fill-opacity="0.18" />
    <text x="785.3" y="90.2" text-anchor="middle" dominant-baseline="middle" font-size="9" font-weight="600" fill="var(--color-text-primary)">External System</text>
    <text x="785.3" y="132.0" text-anchor="middle" font-size="14" font-weight="600" fill="var(--color-text-primary)">Email Service</text>
    <text x="785.3" y="150.0" text-anchor="middle" font-size="11" fill="var(--color-text-secondary)">SendGrid / AWS SES</text>
  </g>
  <g class="diagram-node" data-element="ochre" data-element-id="ext-customer-system" data-view-id="view-system-context" data-target-label="Customer Backend">
    <rect x="695.3" y="204.0" width="185.9" height="90.0" rx="12" fill="var(--color-element-ochre-fill)" stroke="var(--color-element-ochre)" stroke-width="2" />
    <path d="M 707.3 204.0 H 869.2 Q 881.2 204.0 881.2 216.0 V 223.0 H 695.3 V 216.0 Q 695.3 204.0 707.3 204.0 Z" data-node-header="true" fill="var(--color-element-ochre)" fill-opacity="0.18" />
    <text x="788.2" y="214.2" text-anchor="middle" dominant-baseline="middle" font-size="9" font-weight="600" fill="var(--color-text-primary)">External System</text>
    <text x="788.2" y="256.0" text-anchor="middle" font-size="14" font-weight="600" fill="var(--color-text-primary)">Customer Backend</text>
    <text x="788.2" y="274.0" text-anchor="middle" font-size="11" fill="var(--color-text-secondary)">Tenant-defined</text>
  </g>
</svg>
