<svg viewBox="0 0 1015 576" width="1015" height="576" xmlns="http://www.w3.org/2000/svg">
  <defs>
    <marker id="arrow" markerWidth="10" markerHeight="10" refX="8" refY="5" orient="auto">
      <path d="M0,0 L10,5 L0,10 z" fill="#90a7cf" />
    </marker>
  </defs>
  <rect x="0" y="0" width="1015" height="576" fill="#0b1020" />
  <rect x="64.0" y="130.0" width="590.5" height="282.0" rx="14" fill="rgba(20, 31, 54, 0.26)" stroke="#506385" stroke-dasharray="5 4" />
  <text x="80.0" y="152.0" font-size="11" fill="#99aecb" font-weight="700">Rundler RPC [Container Boundary]</text>
  
  <path d="M 298.2 236.5 L 323.2 236.5 Q 333.2 236.5 333.2 246.5 L 333.2 264.0 Q 333.2 274.0 343.2 274.0 L 388.3 274.0" stroke="#90a7cf" stroke-width="1.15" fill="none" marker-end="url(#arrow)" />
  <path d="M 298.2 236.5 L 323.2 236.5 Q 333.2 236.5 333.2 246.5 L 333.2 264.0 Q 333.2 274.0 343.2 274.0 L 388.3 274.0" stroke="transparent" stroke-width="14" fill="none"
        data-relationship-id="rpc-eth-api-calls-rpc-entrypoint-router" data-view-id="component-rundler-rpc" data-target-label="Routes user operation methods by entry point" />
  <text x="360.8" y="282.0" transform="rotate(0.0 360.8 282.0)" text-anchor="middle"
        font-size="9" fill="#95a9c9">Routes user operation methods by en…</text>
  
  <path d="M 496.4 244.0 L 496.4 278.5 Q 496.4 279.0 496.4 279.0 L 496.4 279.0 Q 496.4 279.0 496.4 278.5 L 496.4 274.0" stroke="#90a7cf" stroke-width="1.15" fill="none" marker-end="url(#arrow)" />
  <path d="M 496.4 244.0 L 496.4 278.5 Q 496.4 279.0 496.4 279.0 L 496.4 279.0 Q 496.4 279.0 496.4 278.5 L 496.4 274.0" stroke="transparent" stroke-width="14" fill="none"
        data-relationship-id="rpc-rundler-api-calls-rpc-entrypoint-router" data-view-id="component-rundler-rpc" data-target-label="Routes entry point aware Rundler queries" />
  <text x="488.4" y="261.5" transform="rotate(90.0 488.4 261.5)" text-anchor="middle"
        font-size="9" fill="#95a9c9">Routes entry point aware Rundler qu…</text>
  
  <path d="M 626.5 281.5 L 664.5 281.5 Q 674.5 281.5 674.5 271.5 L 674.5 263.9 Q 674.5 253.9 684.5 253.9 L 722.5 253.9" stroke="#90a7cf" stroke-width="1.15" fill="none" marker-end="url(#arrow)" />
  <path d="M 626.5 281.5 L 664.5 281.5 Q 674.5 281.5 674.5 271.5 L 674.5 263.9 Q 674.5 253.9 684.5 253.9 L 722.5 253.9" stroke="transparent" stroke-width="14" fill="none"
        data-relationship-id="rpc-entrypoint-router-calls-rundler-pool" data-view-id="component-rundler-rpc" data-target-label="Delegates addOperation and pool-backed queries" />
  <text x="650.5" y="289.5" transform="rotate(0.0 650.5 289.5)" text-anchor="middle"
        font-size="9" fill="#95a9c9">Delegates addOperation and pool-bac…</text>
  
  <path d="M 204.0 244.0 L 204.0 348.5 Q 204.0 357.0 195.5 357.0 L 195.5 357.0 Q 187.0 357.0 187.0 365.5 L 187.0 430.0" stroke="#90a7cf" stroke-width="1.15" fill="none" marker-end="url(#arrow)" />
  <path d="M 204.0 244.0 L 204.0 348.5 Q 204.0 357.0 195.5 357.0 L 195.5 357.0 Q 187.0 357.0 187.0 365.5 L 187.0 430.0" stroke="transparent" stroke-width="14" fill="none"
        data-relationship-id="rpc-eth-api-calls-evm-json-rpc-node" data-view-id="component-rundler-rpc" data-target-label="Uses gas estimator against chain state" />
  <text x="196.0" y="300.5" transform="rotate(90.0 196.0 300.5)" text-anchor="middle"
        font-size="9" fill="#95a9c9">Uses gas estimator against chain st…</text>
  
  <path d="M 324.3 323.8 L 525.2 323.8 Q 533.4 323.8 533.4 332.0 L 533.4 332.0 Q 533.4 340.3 541.6 340.3 L 722.5 340.3" stroke="#90a7cf" stroke-width="1.15" fill="none" marker-end="url(#arrow)" />
  <path d="M 324.3 323.8 L 525.2 323.8 Q 533.4 323.8 533.4 332.0 L 533.4 332.0 Q 533.4 340.3 541.6 340.3 L 722.5 340.3" stroke="transparent" stroke-width="14" fill="none"
        data-relationship-id="rpc-debug-admin-api-calls-rundler-builder" data-view-id="component-rundler-rpc" data-target-label="Triggers immediate bundles and bundling mode changes" />
  <text x="428.9" y="331.8" transform="rotate(0.0 428.9 331.8)" text-anchor="middle"
        font-size="9" fill="#95a9c9">Triggers immediate bundles and bund…</text>
  
  <path d="M 324.3 300.9 L 513.4 300.9 Q 523.4 300.9 523.4 290.9 L 523.4 248.8 Q 523.4 238.8 533.4 238.8 L 722.5 238.8" stroke="#90a7cf" stroke-width="1.15" fill="none" marker-end="url(#arrow)" />
  <path d="M 324.3 300.9 L 513.4 300.9 Q 523.4 300.9 523.4 290.9 L 523.4 248.8 Q 523.4 238.8 533.4 238.8 L 722.5 238.8" stroke="transparent" stroke-width="14" fill="none"
        data-relationship-id="rpc-debug-admin-api-calls-rundler-pool" data-view-id="component-rundler-rpc" data-target-label="Dumps or clears mempool and reputation state" />
  <text x="622.9" y="246.8" transform="rotate(0.0 622.9 246.8)" text-anchor="middle"
        font-size="9" fill="#95a9c9">Dumps or clears mempool and reputat…</text>
  <rect x="118.2" y="154.0" width="180.0" height="90.0" rx="12" fill="#244c57" stroke="#72aeb6" stroke-width="1.2" data-element-id="rpc-eth-api" data-view-id="component-rundler-rpc" data-target-label="RPC Eth API" />
  <path d="M 119.2 176.0 L 119.2 166.0 Q 119.2 155.0 130.2 155.0 L 286.2 155.0 Q 297.2 155.0 297.2 166.0 L 297.2 176.0 Z" fill="#2c5d69" />
  <text x="208.2" y="169.0" text-anchor="middle" font-size="9" font-weight="700" fill="#c7d8f2">[Component]</text>
  <text x="208.2" y="202.0" text-anchor="middle" font-size="16" font-weight="700" fill="#e8f0ff">RPC Eth API</text>
  <text x="208.2" y="220.0" text-anchor="middle" font-size="11" fill="#c5d3e8">Rust</text>
  <rect x="398.8" y="154.0" width="195.2" height="90.0" rx="12" fill="#244c57" stroke="#72aeb6" stroke-width="1.2" data-element-id="rpc-rundler-api" data-view-id="component-rundler-rpc" data-target-label="RPC Rundler API" />
  <path d="M 399.8 176.0 L 399.8 166.0 Q 399.8 155.0 410.8 155.0 L 582.0 155.0 Q 593.0 155.0 593.0 166.0 L 593.0 176.0 Z" fill="#2c5d69" />
  <text x="496.4" y="169.0" text-anchor="middle" font-size="9" font-weight="700" fill="#c7d8f2">[Component]</text>
  <text x="496.4" y="202.0" text-anchor="middle" font-size="16" font-weight="700" fill="#e8f0ff">RPC Rundler API</text>
  <text x="496.4" y="220.0" text-anchor="middle" font-size="11" fill="#c5d3e8">Rust</text>
  <rect x="92.0" y="274.0" width="232.3" height="90.0" rx="12" fill="#244c57" stroke="#72aeb6" stroke-width="1.2" data-element-id="rpc-debug-admin-api" data-view-id="component-rundler-rpc" data-target-label="RPC Debug/Admin API" />
  <path d="M 93.0 296.0 L 93.0 286.0 Q 93.0 275.0 104.0 275.0 L 312.3 275.0 Q 323.3 275.0 323.3 286.0 L 323.3 296.0 Z" fill="#2c5d69" />
  <text x="208.2" y="289.0" text-anchor="middle" font-size="9" font-weight="700" fill="#c7d8f2">[Component]</text>
  <text x="208.2" y="322.0" text-anchor="middle" font-size="16" font-weight="700" fill="#e8f0ff">RPC Debug/Admin API</text>
  <text x="208.2" y="340.0" text-anchor="middle" font-size="11" fill="#c5d3e8">Rust</text>
  <rect x="366.3" y="274.0" width="260.2" height="90.0" rx="12" fill="#244c57" stroke="#72aeb6" stroke-width="1.2" data-element-id="rpc-entrypoint-router" data-view-id="component-rundler-rpc" data-target-label="RPC Entry Point Router" />
  <path d="M 367.3 296.0 L 367.3 286.0 Q 367.3 275.0 378.3 275.0 L 614.5 275.0 Q 625.5 275.0 625.5 286.0 L 625.5 296.0 Z" fill="#2c5d69" />
  <text x="496.4" y="289.0" text-anchor="middle" font-size="9" font-weight="700" fill="#c7d8f2">[Component]</text>
  <text x="496.4" y="322.0" text-anchor="middle" font-size="16" font-weight="700" fill="#e8f0ff">RPC Entry Point Router</text>
  <text x="496.4" y="340.0" text-anchor="middle" font-size="11" fill="#c5d3e8">Rust</text>
  <rect x="722.5" y="176.0" width="228.3" height="90.0" rx="12" fill="#295164" stroke="#6ea2bb" stroke-width="1.2" data-element-id="rundler-pool" data-view-id="component-rundler-rpc" data-target-label="Rundler Pool" />
  <path d="M 723.5 198.0 L 723.5 188.0 Q 723.5 177.0 734.5 177.0 L 938.7 177.0 Q 949.7 177.0 949.7 188.0 L 949.7 198.0 Z" fill="#33667e" />
  <text x="836.6" y="191.0" text-anchor="middle" font-size="9" font-weight="700" fill="#c7d8f2">[Container: Rust / tonic + tokio]</text>
  <text x="836.6" y="224.0" text-anchor="middle" font-size="16" font-weight="700" fill="#e8f0ff">Rundler Pool</text>
  <text x="836.6" y="242.0" text-anchor="middle" font-size="11" fill="#c5d3e8">Rust / tonic + tokio</text>
  <rect x="722.5" y="300.0" width="228.3" height="90.0" rx="12" fill="#295164" stroke="#6ea2bb" stroke-width="1.2" data-element-id="rundler-builder" data-view-id="component-rundler-rpc" data-target-label="Rundler Builder" />
  <path d="M 723.5 322.0 L 723.5 312.0 Q 723.5 301.0 734.5 301.0 L 938.7 301.0 Q 949.7 301.0 949.7 312.0 L 949.7 322.0 Z" fill="#33667e" />
  <text x="836.6" y="315.0" text-anchor="middle" font-size="9" font-weight="700" fill="#c7d8f2">[Container: Rust / tonic + tokio]</text>
  <text x="836.6" y="348.0" text-anchor="middle" font-size="16" font-weight="700" fill="#e8f0ff">Rundler Builder</text>
  <text x="836.6" y="366.0" text-anchor="middle" font-size="11" fill="#c5d3e8">Rust / tonic + tokio</text>
  <rect x="76.0" y="430.0" width="213.8" height="90.0" rx="12" fill="#3d4556" stroke="#8b98ae" stroke-width="1.2" data-element-id="evm-json-rpc-node" data-view-id="component-rundler-rpc" data-target-label="EVM JSON-RPC Node" />
  <path d="M 77.0 452.0 L 77.0 442.0 Q 77.0 431.0 88.0 431.0 L 277.8 431.0 Q 288.8 431.0 288.8 442.0 L 288.8 452.0 Z" fill="#4a556a" />
  <text x="182.9" y="445.0" text-anchor="middle" font-size="9" font-weight="700" fill="#c7d8f2">[External System]</text>
  <text x="182.9" y="478.0" text-anchor="middle" font-size="16" font-weight="700" fill="#e8f0ff">EVM JSON-RPC Node</text>
  <text x="182.9" y="496.0" text-anchor="middle" font-size="11" fill="#c5d3e8">JSON-RPC over HTTP(S)</text>
</svg>
