<svg viewBox="0 0 1680 352" width="1680" height="352" xmlns="http://www.w3.org/2000/svg">
  <defs>
    <marker id="arrow" markerWidth="10" markerHeight="10" refX="8" refY="5" orient="auto">
      <path d="M0,0 L10,5 L0,10 z" fill="#90a7cf" />
    </marker>
  </defs>
  <rect x="0" y="0" width="1680" height="352" fill="#0b1020" />
  <rect x="64.0" y="80.0" width="320.0" height="240.0" rx="14" fill="rgba(26, 34, 48, 0.38)" stroke="#5e7396" stroke-dasharray="5 4" />
  <text x="80.0" y="102.0" font-size="11" fill="#99aecb" font-weight="700">RPC Host</text>
  <rect x="452.0" y="80.0" width="320.0" height="240.0" rx="14" fill="rgba(26, 34, 48, 0.38)" stroke="#5e7396" stroke-dasharray="5 4" />
  <text x="468.0" y="102.0" font-size="11" fill="#99aecb" font-weight="700">Pool Host</text>
  <rect x="840.0" y="80.0" width="320.0" height="240.0" rx="14" fill="rgba(26, 34, 48, 0.38)" stroke="#5e7396" stroke-dasharray="5 4" />
  <text x="856.0" y="102.0" font-size="11" fill="#99aecb" font-weight="700">Builder Host</text>
  <rect x="1228.0" y="80.0" width="320.0" height="240.0" rx="14" fill="rgba(26, 34, 48, 0.38)" stroke="#5e7396" stroke-dasharray="5 4" />
  <text x="1244.0" y="102.0" font-size="11" fill="#99aecb" font-weight="700">Redis Service</text>
  
  <path d="M 299.4 175.0 L 389.2 175.0 Q 389.7 175.0 389.7 175.0 L 389.7 175.0 Q 389.7 175.0 390.2 175.0 L 480.0 175.0" stroke="#90a7cf" stroke-width="1.15" fill="none" marker-end="url(#arrow)" />
  <path d="M 299.4 175.0 L 389.2 175.0 Q 389.7 175.0 389.7 175.0 L 389.7 175.0 Q 389.7 175.0 390.2 175.0 L 480.0 175.0" stroke="transparent" stroke-width="14" fill="none"
        data-relationship-id="rundler-rpc-calls-rundler-pool" data-view-id="deployment" data-target-label="Forwards user operation submission and state queries" />
  <text x="344.5" y="183.0" transform="rotate(0.0 344.5 183.0)" text-anchor="middle"
        font-size="9" fill="#95a9c9">Forwards user operation submission …</text>
  
  <path d="M 299.4 175.0 L 593.2 175.0 Q 593.7 175.0 593.7 175.0 L 593.7 175.0 Q 593.7 175.0 594.2 175.0 L 868.0 175.0" stroke="#90a7cf" stroke-width="1.15" fill="none" marker-end="url(#arrow)" />
  <path d="M 299.4 175.0 L 593.2 175.0 Q 593.7 175.0 593.7 175.0 L 593.7 175.0 Q 593.7 175.0 594.2 175.0 L 868.0 175.0" stroke="transparent" stroke-width="14" fill="none"
        data-relationship-id="rundler-rpc-calls-rundler-builder" data-view-id="deployment" data-target-label="Triggers debug bundling and builder control paths" />
  <text x="446.5" y="183.0" transform="rotate(0.0 446.5 183.0)" text-anchor="middle"
        font-size="9" fill="#95a9c9">Triggers debug bundling and builder…</text>
  
  <path d="M 868.0 175.0 L 768.6 175.0 Q 768.1 175.0 768.1 175.0 L 768.1 175.0 Q 768.1 175.0 767.6 175.0 L 708.3 175.0" stroke="#90a7cf" stroke-width="1.15" fill="none" marker-end="url(#arrow)" />
  <path d="M 868.0 175.0 L 768.6 175.0 Q 768.1 175.0 768.1 175.0 L 768.1 175.0 Q 768.1 175.0 767.6 175.0 L 708.3 175.0" stroke="transparent" stroke-width="14" fill="none"
        data-relationship-id="rundler-builder-calls-rundler-pool" data-view-id="deployment" data-target-label="Fetches eligible operations and reports failures" />
  <text x="818.1" y="167.0" transform="rotate(0.0 818.1 167.0)" text-anchor="middle"
        font-size="9" fill="#95a9c9">Fetches eligible operations and rep…</text>
  
  <path d="M 708.3 175.0 L 767.6 175.0 Q 768.1 175.0 768.1 175.0 L 768.1 175.0 Q 768.1 175.0 768.6 175.0 L 868.0 175.0" stroke="#90a7cf" stroke-width="1.15" fill="none" marker-end="url(#arrow)" />
  <path d="M 708.3 175.0 L 767.6 175.0 Q 768.1 175.0 768.1 175.0 L 768.1 175.0 Q 768.1 175.0 768.6 175.0 L 868.0 175.0" stroke="transparent" stroke-width="14" fill="none"
        data-relationship-id="rundler-pool-publishes-to-rundler-builder" data-view-id="deployment" data-target-label="Publishes new block and mempool update signals" />
  <text x="818.1" y="183.0" transform="rotate(0.0 818.1 183.0)" text-anchor="middle"
        font-size="9" fill="#95a9c9">Publishes new block and mempool upd…</text>
  
  <path d="M 1096.3 175.0 L 1165.6 175.0 Q 1166.1 175.0 1166.1 175.0 L 1166.1 175.0 Q 1166.1 175.0 1166.6 175.0 L 1256.0 175.0" stroke="#90a7cf" stroke-width="1.15" fill="none" marker-end="url(#arrow)" />
  <path d="M 1096.3 175.0 L 1165.6 175.0 Q 1166.1 175.0 1166.1 175.0 L 1166.1 175.0 Q 1166.1 175.0 1166.6 175.0 L 1256.0 175.0" stroke="transparent" stroke-width="14" fill="none"
        data-relationship-id="rundler-builder-calls-redis-lock-store" data-view-id="deployment" data-target-label="Leases KMS keys to signer workers" />
  <text x="1211.1" y="183.0" transform="rotate(0.0 1211.1 183.0)" text-anchor="middle"
        font-size="9" fill="#95a9c9">Leases KMS keys to signer workers</text>
  <rect x="92.0" y="130.0" width="207.4" height="90.0" rx="12" fill="#295164" stroke="#6ea2bb" stroke-width="1.2" data-element-id="rundler-rpc" data-view-id="deployment" data-target-label="Rundler RPC" />
  <path d="M 93.0 152.0 L 93.0 142.0 Q 93.0 131.0 104.0 131.0 L 287.4 131.0 Q 298.4 131.0 298.4 142.0 L 298.4 152.0 Z" fill="#33667e" />
  <text x="195.7" y="145.0" text-anchor="middle" font-size="9" font-weight="700" fill="#c7d8f2">[Container: Rust / jsonrpsee]</text>
  <text x="195.7" y="178.0" text-anchor="middle" font-size="16" font-weight="700" fill="#e8f0ff">Rundler RPC</text>
  <text x="195.7" y="196.0" text-anchor="middle" font-size="11" fill="#c5d3e8">Rust / jsonrpsee</text>
  <rect x="480.0" y="130.0" width="228.3" height="90.0" rx="12" fill="#295164" stroke="#6ea2bb" stroke-width="1.2" data-element-id="rundler-pool" data-view-id="deployment" data-target-label="Rundler Pool" />
  <path d="M 481.0 152.0 L 481.0 142.0 Q 481.0 131.0 492.0 131.0 L 696.3 131.0 Q 707.3 131.0 707.3 142.0 L 707.3 152.0 Z" fill="#33667e" />
  <text x="594.1" y="145.0" text-anchor="middle" font-size="9" font-weight="700" fill="#c7d8f2">[Container: Rust / tonic + tokio]</text>
  <text x="594.1" y="178.0" text-anchor="middle" font-size="16" font-weight="700" fill="#e8f0ff">Rundler Pool</text>
  <text x="594.1" y="196.0" text-anchor="middle" font-size="11" fill="#c5d3e8">Rust / tonic + tokio</text>
  <rect x="868.0" y="130.0" width="228.3" height="90.0" rx="12" fill="#295164" stroke="#6ea2bb" stroke-width="1.2" data-element-id="rundler-builder" data-view-id="deployment" data-target-label="Rundler Builder" />
  <path d="M 869.0 152.0 L 869.0 142.0 Q 869.0 131.0 880.0 131.0 L 1084.3 131.0 Q 1095.3 131.0 1095.3 142.0 L 1095.3 152.0 Z" fill="#33667e" />
  <text x="982.1" y="145.0" text-anchor="middle" font-size="9" font-weight="700" fill="#c7d8f2">[Container: Rust / tonic + tokio]</text>
  <text x="982.1" y="178.0" text-anchor="middle" font-size="16" font-weight="700" fill="#e8f0ff">Rundler Builder</text>
  <text x="982.1" y="196.0" text-anchor="middle" font-size="11" fill="#c5d3e8">Rust / tonic + tokio</text>
  <rect x="1256.0" y="130.0" width="204.5" height="90.0" rx="12" fill="#2d3445" stroke="#73839e" stroke-width="1.2" data-element-id="redis-lock-store" data-view-id="deployment" data-target-label="Redis Lock Store" />
  <path d="M 1257.0 152.0 L 1257.0 142.0 Q 1257.0 131.0 1268.0 131.0 L 1448.5 131.0 Q 1459.5 131.0 1459.5 142.0 L 1459.5 152.0 Z" fill="#39455b" />
  <text x="1358.2" y="145.0" text-anchor="middle" font-size="9" font-weight="700" fill="#c7d8f2">[Container: Cache/Queue]</text>
  <text x="1358.2" y="178.0" text-anchor="middle" font-size="16" font-weight="700" fill="#e8f0ff">Redis Lock Store</text>
  <text x="1358.2" y="196.0" text-anchor="middle" font-size="11" fill="#c5d3e8">Redis</text>
</svg>
